<svg width="100" height="100" xmlns="http://www.w3.org/2000/svg">

 <g>
  <title>background</title>
  <rect fill="none" id="canvas_background" height="102" width="102" y="-1" x="-1"/>
 </g>
 <g>
  <title>Layer 1</title>
  <g id="svg_1">
   <path id="svg_2" d="m70.6,75.1l-10.6,-33c3.6,-2.9 5.9,-7.3 5.9,-12.3c0,-8.7 -7.1,-15.8 -15.9,-15.8c-8.7,0 -15.9,7.1 -15.9,15.8c0,5 2.3,9.4 5.9,12.3l-10.6,33c0,0.2 -0.1,0.3 -0.1,0.5c0,3 2.3,5.7 6.5,7.7c3.8,1.7 8.9,2.7 14.2,2.7c5.3,0 10.4,-1 14.2,-2.7c4.2,-1.9 6.5,-4.7 6.5,-7.7c-0.1,-0.2 -0.1,-0.4 -0.1,-0.5zm-33.4,-45.3c0,-7 5.7,-12.7 12.8,-12.7c7.1,0 12.8,5.7 12.8,12.7c0,7 -5.7,12.7 -12.8,12.7c-7.1,0 -12.8,-5.7 -12.8,-12.7zm12.8,53.1c-10.2,0 -17.3,-3.7 -17.6,-7.2l10.3,-31.9c2.2,1.1 4.7,1.8 7.3,1.8c2.6,0 5.1,-0.6 7.3,-1.8l10.3,31.9c-0.3,3.5 -7.4,7.2 -17.6,7.2z"/>
  </g>
  <g id="svg_3" display="none">
   <path id="svg_4" d="m91.4,70.4l-7,-21.7c2.4,-2 3.9,-5 3.9,-8.4c0,-6.1 -5,-11 -11.1,-11c-6.1,0 -11.1,4.9 -11.1,11c0,3.3 1.5,6.3 3.9,8.4l-4,12.2l-6.1,-18.8c3.6,-2.9 5.9,-7.3 5.9,-12.3c0.1,-8.7 -7,-15.8 -15.8,-15.8c-8.7,0 -15.9,7.1 -15.9,15.8c0,5 2.3,9.4 5.9,12.3l-6,18.8l-3.9,-12.2c2.4,-2 3.9,-5 3.9,-8.4c0,-6.1 -5,-11 -11.1,-11c-6.1,0 -11.1,4.9 -11.1,11c0,3.3 1.5,6.3 3.9,8.4l-7,21.7c0,0.2 -0.1,0.3 -0.1,0.5c0,4.3 6.1,7.5 14.3,7.5c2.4,0 4.8,-0.3 6.8,-0.9c0.8,2.2 2.9,4.2 6.2,5.8c3.7,1.7 8.8,2.7 14.1,2.7c5.3,0 10.4,-1 14.2,-2.7c3.3,-1.5 5.4,-3.5 6.2,-5.8c2.1,0.6 4.4,0.9 6.8,0.9c8.1,0 14.3,-3.2 14.3,-7.5c-0.1,-0.2 -0.1,-0.4 -0.1,-0.5zm-22.3,-30c0,-4.4 3.6,-8 8,-8s8,3.6 8,8c0,4.4 -3.6,8 -8,8s-8,-3.6 -8,-8zm-31.9,-10.6c0,-7 5.7,-12.7 12.8,-12.7c7.1,0 12.8,5.7 12.8,12.7c0,7 -5.7,12.7 -12.8,12.7c-7.1,0 -12.8,-5.7 -12.8,-12.7zm-22.4,10.6c0,-4.4 3.6,-8 8,-8c4.4,0 8,3.6 8,8c0,4.4 -3.6,8 -8,8c-4.4,-0.1 -8,-3.6 -8,-8zm-3.2,30.6l6.6,-20.6c1.4,0.6 2.9,1 4.6,1c1.6,0 3.2,-0.4 4.5,-1l5,15.5l-2.7,8.3c-2,0.7 -4.4,1 -6.9,1c-6.6,0.1 -10.8,-2.3 -11.1,-4.2zm38.4,11.9c-10.2,0 -17.3,-3.7 -17.6,-7.2l10.3,-31.9c2.2,1.1 4.7,1.8 7.3,1.8c2.6,0 5.1,-0.6 7.3,-1.8l10.3,31.9c-0.3,3.5 -7.4,7.2 -17.6,7.2zm27.2,-7.6c-2.5,0 -4.9,-0.4 -6.9,-1l-2.7,-8.3l5,-15.5c1.4,0.6 2.9,1 4.6,1c1.6,0 3.2,-0.4 4.5,-1l6.7,20.5c-0.3,1.9 -4.5,4.3 -11.2,4.3z"/>
  </g>
  <g id="svg_5" display="none">
   <path id="svg_6" d="m93,58.2l0.8,0c0.7,0 1.2,-0.5 1.2,-1.2l0,-4.1c0,-0.7 -0.5,-1.2 -1.2,-1.2l-0.8,0c-0.1,0 -0.3,0 -0.4,0.1c-0.4,-3.1 -3.1,-5.5 -6.4,-5.5c-1.8,0 -3.4,0.7 -4.6,1.9l-0.8,-2.3c2.4,-2 3.9,-5 3.9,-8.4c0,-6.1 -5,-11 -11.1,-11c-6.1,0 -11.1,4.9 -11.1,11c0,3.3 1.5,6.3 3.9,8.4l-4,12.1l-6.1,-18.8c3.6,-2.9 5.9,-7.3 5.9,-12.3c0,-8.7 -7.1,-15.8 -15.9,-15.8c-8.7,0 -15.9,7.1 -15.9,15.8c0,5 2.3,9.4 5.9,12.3l-10.6,33c0,0.2 -0.1,0.3 -0.1,0.5c0,3 2.3,5.7 6.5,7.7c1.4,0.7 3,1.2 4.7,1.6l0,5.5c0,0.8 0.7,1.5 1.5,1.5s1.5,-0.7 1.5,-1.5l0,-4.8c2,0.3 4.2,0.5 6.4,0.5c5.3,0 10.4,-1 14.2,-2.7c3.3,-1.5 5.4,-3.5 6.2,-5.8c2.1,0.6 4.4,0.9 6.8,0.9c1.3,0 2.5,-0.1 3.7,-0.2l0,0.1c0,0.7 0.5,1.2 1.2,1.2l0.8,0c0.1,0 0.3,0 0.4,-0.1c0.4,3.1 3.1,5.5 6.4,5.5c3.2,0 5.9,-2.4 6.4,-5.5c0.1,0 0.3,0.1 0.4,0.1l0.8,0c0.7,0 1.2,-0.5 1.2,-1.2l0,-4.1c0,-0.7 -0.5,-1.2 -1.2,-1.2l-0.5,0c-0.1,0 -0.2,0 -0.3,0.1l0,-12.1c0,0 0.1,0 0.3,0zm-10.2,-1.7l6.8,0l0,15.1l-6.8,0l0,-15.1zm3.4,-7.2c1.9,0 3.4,1.5 3.4,3.4l0,0.7l-6.8,0l0,-0.7c0,-1.9 1.5,-3.4 3.4,-3.4zm-20.6,-11.9c0,-4.4 3.6,-8 8,-8s8,3.6 8,8c0,4.4 -3.6,8 -8,8s-8,-3.6 -8,-8zm-32,-10.5c0,-7 5.7,-12.7 12.8,-12.7c7.1,0 12.8,5.7 12.8,12.7c0,7 -5.7,12.7 -12.8,12.7c-7,0 -12.8,-5.7 -12.8,-12.7zm12.8,53.1c-2.3,0 -4.4,-0.2 -6.4,-0.5l0,-17.9c0,-2.9 2.4,-5.2 5.2,-5.2c2.9,0 5.2,2.4 5.2,5.2c0,0.8 0.7,1.5 1.5,1.5s1.5,-0.7 1.5,-1.5c0,-4.6 -3.7,-8.3 -8.3,-8.3s-8.1,3.7 -8.1,8.3l0,17.2c-4.9,-1.4 -7.9,-3.7 -8.1,-5.9l10.3,-31.9c2.2,1.1 4.7,1.8 7.3,1.8c2.6,0 5.1,-0.6 7.3,-1.8l7.2,22.3c0,0.2 0.1,0.3 0.2,0.5l2.9,9.1c-0.4,3.3 -7.5,7.1 -17.7,7.1zm32.1,-10.1c-0.7,0 -1.2,0.5 -1.2,1.2l0,1c-0.1,0 -0.2,0 -0.3,0c-1.1,0.2 -2.2,0.2 -3.4,0.2c-2.5,0 -4.9,-0.4 -6.9,-1l-2.6,-8.3l5,-15.5c1.4,0.6 2.9,1 4.6,1c1.6,0 3.2,-0.4 4.5,-1l1.4,4.2c-0.1,0 -0.1,0 -0.2,0l-0.8,0c-0.7,0 -1.2,0.5 -1.2,1.2l0,4.1c0,0.7 0.5,1.2 1.2,1.2l0.8,0c0.1,0 0.2,0 0.3,-0.1l0,11.8c-0.1,0 -0.2,-0.1 -0.3,-0.1l-0.9,0l0,0.1zm7.7,8.9c-1.9,0 -3.4,-1.5 -3.4,-3.4l0,-0.7l6.8,0l0,0.7c-0.1,1.9 -1.6,3.4 -3.4,3.4z"/>
  </g>
  <g id="svg_7" display="none">
   <g id="svg_8" display="inline">
    <path id="svg_9" d="m78.6,41.1l-6.1,-3.5c0,-1 -0.6,-1.8 -1.3,-2.3l0,-9.3c0,-0.8 -0.7,-1.5 -1.5,-1.5s-1.5,0.7 -1.5,1.5l0,9.2c-0.8,0.5 -1.3,1.4 -1.3,2.4c0,1.6 1.3,2.9 2.9,2.9c0.5,0 0.9,-0.1 1.3,-0.3l6.1,3.5c0.2,0.1 0.5,0.2 0.8,0.2c0.5,0 1,-0.3 1.3,-0.8c0.3,-0.6 0.1,-1.6 -0.7,-2z"/>
    <path id="svg_10" d="m69.7,18.9c-3,0 -5.9,0.7 -8.5,2c-2.4,-5.8 -8.1,-9.9 -14.7,-9.9c-8.7,0 -15.9,7.1 -15.9,15.8c0,5 2.3,9.4 5.9,12.3l-10.6,33c0,0.2 -0.1,0.3 -0.1,0.5c0,3 2.3,5.7 6.5,7.7c3.8,1.7 8.8,2.7 14.1,2.7c5.3,0 10.4,-1 14.2,-2.7c4.2,-1.9 6.5,-4.7 6.5,-7.7c0,-0.2 0,-0.3 -0.1,-0.5l-5.7,-17.7c2.6,1.3 5.4,2 8.3,2c10.3,0 18.7,-8.4 18.7,-18.7c0.1,-10.4 -8.3,-18.8 -18.6,-18.8zm-36.1,8c0,-7 5.7,-12.7 12.8,-12.7c5.9,0 10.8,4 12.3,9.3c0,0.1 0,0.2 0.1,0.3c0.2,1 0.4,2 0.4,3.1c0,7 -5.7,12.7 -12.8,12.7c-7,0 -12.8,-5.7 -12.8,-12.7zm12.8,53.1c-10.2,0 -17.3,-3.7 -17.6,-7.2l10.3,-31.9c2.2,1.1 4.7,1.8 7.3,1.8c2.6,0 5.1,-0.6 7.3,-1.8l3.3,10.3c0,0.1 0,0.2 0.1,0.3l6.9,21.3c-0.3,3.4 -7.4,7.2 -17.6,7.2zm23.3,-26.6c-3.6,0 -7,-1.2 -9.8,-3.4l-3.5,-10.8c3.6,-2.9 5.9,-7.3 5.9,-12.3c0,-1 -0.1,-2 -0.3,-2.9c2.3,-1.3 4.9,-2 7.6,-2c8.6,0 15.7,7 15.7,15.7s-7,15.7 -15.6,15.7z"/>
   </g>
  </g>
 </g>
</svg>